<?xml version="1.0" encoding="UTF-8"?>
<svg id="Layer_1" data-name="Layer 1" xmlns="http://www.w3.org/2000/svg" xmlns:xlink="http://www.w3.org/1999/xlink" viewBox="0 0 1500.83 1500.09">
  <defs>
    <style>
      .cls-1 {
        letter-spacing: 0em;
      }

      .cls-2 {
        fill: #f15a24;
      }

      .cls-3 {
        fill: url(#linear-gradient);
      }

      .cls-4, .cls-5, .cls-6 {
        fill: #fff;
      }

      .cls-7, .cls-6 {
        font-family: BIGMACCA, BIGMACCA;
        font-size: 589.17px;
      }

      .cls-5 {
        font-family: Montserrat-Regular, Montserrat;
        font-size: 163.31px;
      }

      .cls-8 {
        letter-spacing: 0em;
      }
    </style>
    <linearGradient id="linear-gradient" x1="0" y1="750.04" x2="1500.83" y2="750.04" gradientUnits="userSpaceOnUse">
      <stop offset="0" stop-color="#5e96d3"/>
      <stop offset=".11" stop-color="#5b92ce"/>
      <stop offset=".24" stop-color="#5588c0"/>
      <stop offset=".37" stop-color="#4a76a9"/>
      <stop offset=".51" stop-color="#3b5e88"/>
      <stop offset=".66" stop-color="#27405f"/>
      <stop offset=".71" stop-color="#20344f"/>
      <stop offset=".83" stop-color="#182e4a"/>
      <stop offset="1" stop-color="#07223f"/>
    </linearGradient>
  </defs>
  <path class="cls-3" d="M1500.61,1499.94c-419.71-.24-1071.78.33-1497.86.09C-3.38,1117.98,2.95,387.7.91.18c420.76.29,1072.63-.47,1499.62-.05.64,391.24.03,1108.36.08,1499.8h0Z"/>
  <text class="cls-6" transform="translate(94.06 759.86)"><tspan x="0" y="0">OB1</tspan></text>
  <text class="cls-7" transform="translate(106.43 750.04)"><tspan x="0" y="0">OB</tspan><tspan class="cls-2" x="957.4" y="0">1</tspan></text>
  <text class="cls-5" transform="translate(261.25 999.45)"><tspan x="0" y="0">Open B</tspan><tspan class="cls-8" x="622.84" y="0">r</tspan><tspan class="cls-1" x="686.85" y="0">ain</tspan></text>
  <g>
    <path class="cls-4" d="M740.88,1215.83l-8.51.29-7.74.29-4.86.31-8.66.53-6.95.58-6.69.56-5.05.52-5.86.61c-11.12,1.16-22.11,2.67-32.8,5.9l-5.8,1.75c-.25.08-.99-.04-1.18-.2-.24-.2-.32-.86-.28-1.25l.49-4.44c.12-1.04.33-2.24.52-3.31l.56-3.07.56-2.77c2.9-14.28,10.86-31.98,20.44-43.21l3.08-3.61c2.43-2.84,5.01-5.26,7.82-7.79,12.72-11.47,28.96-20,45.55-24.29,1.08-.28,2.08-.65,3.13-1.09-.15-2.92.51-5.36,1.38-8.01,1.27-3.9,3.38-7.06,6.46-9.76,4.46-3.92,11.75-5.39,17.46-4.48,9.32,1.47,13.94,5.41,16.86,14.4.41,1.25.84,2.48,1.13,3.77.34,1.5.29,3.22.96,4.66l5.52,1.68,4.1,1.19c2.46.71,11.97,4.68,14.46,5.93,19.3,9.7,35.62,24.99,45.66,44.23,4.38,8.38,8.62,20.38,10.32,29.59l.62,3.37c.21,1.11.35,2.2.49,3.4.16,1.29.92,2.66.18,4.02-.98.14-2.33-.1-3.42-.37-7.4-1.84-14.63-3.45-22.2-4.5l-12.45-1.74-11.22-1.24-17.81-1.45-7.25-.47-7.65-.24-7.25-.28h-24.09Z"/>
    <path class="cls-4" d="M726.26,1264.78l-5.69.29-3.33.26-4.75.3-6.06.3-10.91,1.06-11.02,1.23-3.15.45-3.85.62-5.34.99-9.44,2.01c-3.28.7-6.44,1.02-9.75,1.16l-4.24.18c-1.42.06-3.26-.18-4.31-1.26-1.39-1.45-2.63-3.04-3.48-4.91-.34-.79-.49-2.37-.49-3.34v-21.44c0-1.23.31-2.63.59-3.83.47-2.07,2.38-3.43,4.34-4.02l6.21-1.86c4.66-1.4,15.86-3.57,20.93-4.33l4.63-.69,2.83-.42,5.02-.63,3.59-.5,4.73-.58,3.53-.27c1.28-.1,2.39-.44,3.69-.42,1.49.03,2.79-.33,4.25-.41l5.43-.27c1.46-.07,2.78-.47,4.25-.42,2.6.09,4.99-.36,7.55-.41l10.74-.24c1.31-.03,2.64-.44,3.98-.44h30.32c1.24,0,2.51.41,3.71.44l9.92.23c2.56.06,4.95.5,7.55.42,1.29-.04,2.43.18,3.69.41,1.17.21,2.57.14,3.79.25l6.69.61,4.45.48,5.24.61,4.52.69,7.27.87,16.4,2.74,6.16,1.16c2.94.55,5.94,1.13,8.61,2.47,1.42.71,2.36,2.42,3.37,3.56,1.07,1.2,1.86,2.65,1.86,4.35v23.23c-.02,2.64-1.69,4.96-3.74,6.22-2.26,1.38-4.57,1.52-7.08,1.17l-6.9-.97-8.61-1.37-5.72-.77-9.81-1.53-5.41-.68-3.94-.48-5.57-.58-5.54-.56-5.55-.29-4.19-.28-4.44-.29-5.01-.28c-2.06-.12-3.95-.04-6.04-.28l-41.2-.02c-1.78.22-3.37.21-5.29.31Z"/>
    <path class="cls-4" d="M811.13,1363.7c-2.46.22-4.96.25-7.33.05l-6.69-.56-3.88-.55c-7.33-1.04-14.78-4.46-19.8-9.96-6.11-6.69-10.62-17.03-11.99-25.77l-.64-4.09-.47-2.65c-.69-3.9-3.37-6.94-7.45-7.65-2.25-.4-6.25-.57-8.45.82-2.69,1.7-4.01,4.7-4.53,7.74l-.49,2.87-.61,3.53c-1.48,8.5-4.79,16.41-10.08,23.24-4.93,6.36-11.57,9.55-19.31,11.34-2.13.49-4.24.9-6.45,1.1l-5.9.51c-2.67.23-5.42.23-8.1,0l-6.42-.55c-4.27-.37-8.28-1.44-12.24-3.03-5.29-2.13-9.73-5.53-12.63-10.48-3.32-5.66-5.76-11.67-6.82-18.18l-.58-3.56-.55-3.67-.29-3.48c-.11-1.28-.43-2.38-.41-3.69.02-1.39-.61-5.34-.94-6.52-1.67-5.99-5.79-3.61-6.71-7.85-.06-.28-.42-1-.43-1.29-.04-3.05-.1-6.55.04-9.66.16-3.43,4.8-4.47,7.45-4.88l3.61-.56c1.32-.2,2.58-.32,3.93-.47l5.79-.63c1.12-.12,2.23-.46,3.39-.39,1.35.08,2.67-.35,3.94-.43l8.62-.55,20.84-.1,5.83.47c1.85.15,3.54.23,5.33.45l4.24.53,3.35.58,2.54.49c5.69,1.11,10.94,3.24,15.61,6.8,1.71,1.31,3.18,2.73,5.2,3.7l18.32-.08c4.82-.02,8.02-7.96,22.14-10.61l3-.56c1.13-.21,2.44-.41,3.58-.54l5.36-.58,6.17-.31c1.17-.06,2.37-.29,3.53-.32,3.71-.1,7.33-.12,11.06,0l3.9.12,3.9.22,7.23.59,4.24.48,4.44.63,3.61.53,3.31.52,3.39.56,3.07.55,3.06.59,2.25.48c1.65.35,3.06.9,3.58,2.74.83,2.93.64,6.05.29,9.17-.19,1.71-.11,3.67-1.56,4.93s-5.66.9-6.38,6.16l-.5,3.65c-.59,4.32-.44,6.73-.98,10.43l-.54,3.72c-.87,6-3.8,13.58-6.78,18.96-1.74,3.16-4.23,5.56-7.13,7.66-4.58,3.31-9.9,5.15-15.51,6.17-1.24.22-2.58.51-3.81.62l-5.78.51ZM709.17,1351.6c4.6-1.11,8.39-3.68,11.34-7.39,5.48-6.89,8.13-15.93,8.77-24.7l.4-5.58-.52-5.29c-.55-5.64-3.05-9.52-8.49-11.49-2.62-.95-5.45-1.65-8.18-1.99l-4.19-.52c-1.96-.24-3.92-.56-5.84-.57l-23.87-.13c-3.07.96-2.12.15-6.49,1.06-5.09,1.06-10.42,3.99-11.53,9.56-.15.76-.55,1.98-.58,2.74-.17,4.59-.49,9.05.05,13.6l.53,4.45c.12.98.32,2.06.53,3.05l.64,2.95c1.34,6.2,4.31,13.75,9.56,17.6,2.22,1.62,6.54,2.87,9.16,3.22l4.41.59c6.02.8,18.55.22,24.31-1.18ZM812.16,1353.1l3.03-.38c1.57-.19,3-.24,4.51-.54l2.31-.47c4.98-1,9.21-3.6,11.86-8.01,3.04-5.06,5.08-11.21,5.96-17l.54-3.55.43-4.21c.44-4.33.33-8.6.18-12.83-.83-3.34-2.31-6.12-5.32-7.88-2.27-1.32-4.96-2.27-7.62-2.73l-3.59-.62c-1.09-.19-2.25-.49-3.38-.38-1.59.16-3.03-.4-4.53-.45-6.03-.17-11.98-.45-18.01.04l-6.7.55c-1.33.11-2.77.31-4.12.55l-2.29.41c-5.15.92-11.1,3.56-13.17,8.75-1.27,3.2-1.52,8.56-1.14,12.03l.58,5.32c.11,1.04.33,2.25.54,3.31l.59,3.01c1.46,7.47,5.32,15.84,11.52,20.66,3.54,2.75,8.42,3.55,12.78,4.04,2.15.24,4.24.49,6.41.47l8.63-.1Z"/>
  </g>
</svg>